<svg id="Layer_1" data-name="Layer 1" xmlns="http://www.w3.org/2000/svg" xmlns:xlink="http://www.w3.org/1999/xlink" viewBox="0 0 1080 1080"><defs><style>.cls-1{fill:#0c1c44;}.cls-2{fill:url(#Yellow_Pepper);}.cls-3{fill:url(#Yellow_Pepper-2);}.cls-4{fill:url(#Yellow_Pepper-3);}.cls-5{fill:url(#Yellow_Pepper-4);}.cls-6{fill:url(#Yellow_Pepper-5);}.cls-7{fill:url(#Yellow_Pepper-6);}.cls-8{fill:url(#Yellow_Pepper-7);}.cls-9{fill:url(#Yellow_Pepper-8);}.cls-10{fill:url(#Yellow_Pepper-9);}.cls-11{fill:url(#Yellow_Pepper-10);}.cls-12{fill:url(#Yellow_Pepper-11);}.cls-13{fill:url(#Yellow_Pepper-12);}.cls-14{fill:url(#Yellow_Pepper-13);}</style><linearGradient id="Yellow_Pepper" x1="194.11" y1="540" x2="399.68" y2="540" gradientUnits="userSpaceOnUse"><stop offset="0.02" stop-color="#c89419"/><stop offset="0.07" stop-color="#e0a41a"/><stop offset="0.1" stop-color="#f4b21b"/><stop offset="0.23" stop-color="#fcc633"/><stop offset="0.28" stop-color="#ffce3d"/><stop offset="0.45" stop-color="#f8cb39"/><stop offset="0.51" stop-color="#f4d351"/><stop offset="0.64" stop-color="#e9e88f"/><stop offset="0.66" stop-color="#e7ec9a"/><stop offset="0.67" stop-color="#eae584"/><stop offset="0.7" stop-color="#efda61"/><stop offset="0.73" stop-color="#f3d244"/><stop offset="0.76" stop-color="#f6cb2e"/><stop offset="0.8" stop-color="#f8c61e"/><stop offset="0.83" stop-color="#fac315"/><stop offset="0.89" stop-color="#fac212"/><stop offset="0.9" stop-color="#f7c92a"/><stop offset="0.94" stop-color="#eedc68"/><stop offset="0.97" stop-color="#e7ec9a"/></linearGradient><linearGradient id="Yellow_Pepper-2" x1="403.16" y1="562.42" x2="477.97" y2="562.42" xlink:href="#Yellow_Pepper"/><linearGradient id="Yellow_Pepper-3" x1="463.81" y1="574.53" x2="526.27" y2="574.53" xlink:href="#Yellow_Pepper"/><linearGradient id="Yellow_Pepper-4" x1="534.86" y1="574.53" x2="597.32" y2="574.53" xlink:href="#Yellow_Pepper"/><linearGradient id="Yellow_Pepper-5" x1="606.28" y1="559.4" x2="667.89" y2="559.4" xlink:href="#Yellow_Pepper"/><linearGradient id="Yellow_Pepper-6" x1="676.85" y1="562.42" x2="754.32" y2="562.42" xlink:href="#Yellow_Pepper"/><linearGradient id="Yellow_Pepper-7" x1="752.86" y1="574.53" x2="815.32" y2="574.53" xlink:href="#Yellow_Pepper"/><linearGradient id="Yellow_Pepper-8" x1="824.28" y1="590.26" x2="885.89" y2="590.26" xlink:href="#Yellow_Pepper"/><linearGradient id="Yellow_Pepper-9" x1="433.88" y1="638.06" x2="477.08" y2="638.06" xlink:href="#Yellow_Pepper"/><linearGradient id="Yellow_Pepper-10" x1="482.74" y1="638.06" x2="520.8" y2="638.06" xlink:href="#Yellow_Pepper"/><linearGradient id="Yellow_Pepper-11" x1="529.88" y1="638.06" x2="553.34" y2="638.06" xlink:href="#Yellow_Pepper"/><linearGradient id="Yellow_Pepper-12" x1="561.01" y1="638.06" x2="578.14" y2="638.06" xlink:href="#Yellow_Pepper"/><linearGradient id="Yellow_Pepper-13" x1="585.5" y1="638.06" x2="614.52" y2="638.06" xlink:href="#Yellow_Pepper"/></defs><rect class="cls-1" x="-115" y="-95" width="1329" height="1315" rx="12"/><path class="cls-2" d="M199.51,412.75V373h192.6l-60.38,66.4L386.3,506c-3.84,0-6.68.14-9.49-.07a4.7,4.7,0,0,1-2.9-1.58q-26.49-32.07-52.84-64.24a8.71,8.71,0,0,1-.68-1.18l52.17-57.32H301.18V531.26c24.61,2.64,44.74,12.75,58.21,34,9.64,15.2,12.86,31.83,10.21,49.59-5.41,36.27-36.9,63.41-72.66,62.7-38.2-.75-69.45-27.56-73.71-63.53-2.49-21,2.73-40,16.48-56.29,13.6-16.11,31.41-24.24,52.25-26.39V381.64H208.34v22.22h59.43v4.5c0,32.44,0,64.88.09,97.33,0,3.15-.89,4.74-3.83,6.15-22,10.52-39.33,25.94-50.74,47.78-29.58,56.64,5.27,126.76,68.3,137.27,56.25,9.38,108.5-34.2,109.4-91.25,0-1.68,0-3.36,0-5.33h8.5c.84,11.73-1.08,23-4.53,34C381.62,677.06,341.24,707,296.81,707c-45,0-86.5-31.68-98.81-75.56-11.61-41.38,3.2-85,38.51-112.45,6.16-4.79,13.16-8.47,19.67-12.83,1.18-.8,2.58-2.4,2.59-3.63.16-29.43.14-58.87.14-88.3a8.25,8.25,0,0,0-.35-1.48ZM260.4,572.68c-5.11-1.69-10.27-3.47-15.49-5a3.25,3.25,0,0,0-2.89.79A62.21,62.21,0,0,0,231.24,600h24.1C257,590.85,258.69,581.93,260.4,572.68Zm72.68.35,4.78,26.85h24a60.15,60.15,0,0,0-10.5-31.37c-.45-.69-2.24-1-3.16-.76C343.16,569.37,338.16,571.23,333.08,573Zm-77.56,36.06H231.3a60.14,60.14,0,0,0,11.49,32l17-5.9C258.4,626.58,257,618,255.52,609.09Zm106.11,0H337.84c-1.53,8.85-3,17.42-4.52,26,5.31,1.74,10.87,3.56,16.44,5.36a2.41,2.41,0,0,0,.76,0C356.71,632.47,360.79,621,361.63,609.1ZM301.32,600H329.4l-4.83-25-23.25,2.52Zm-37.49-.08h28.3V577.34L269,575C267.28,583.08,265.64,591.09,263.83,599.91Zm.19,9.15c1.5,8.36,2.93,16.32,4.37,24.29l23.71-2.65V609.06Zm65.23.06h-27.8v21.61l23.44,2.49C326.34,625.22,327.76,617.34,329.25,609.12Zm-57.59,32A85,85,0,0,0,292,670.19V639.11ZM321,567c-4.92-10.91-10.75-20.17-19.67-27.85v30.05Zm.25,74-19.91-1.73V670.1A93.46,93.46,0,0,0,321.28,641ZM292,569.11v-29.6A79.09,79.09,0,0,0,272.56,567Zm25.28,96.53a58.85,58.85,0,0,0,28.21-18.33L330.41,643C325.91,650.74,321.71,658,317.31,665.64Zm-41.79,0c-3.86-7-7.58-13.8-11.44-20.55-.44-.77-1.84-1.69-2.52-1.52-4.44,1.15-8.8,2.59-13.67,4.08A60.9,60.9,0,0,0,275.52,665.59Zm69.59-105.33a62.7,62.7,0,0,0-27.57-17.17c4.27,7.41,8.41,14.57,12.69,22Zm-96.5,0,15,4.71c2.2-4,4.07-7.56,6.12-11s4.41-7,6.67-10.62C268.63,544.66,256.75,551.79,248.61,560.3Z"/><path class="cls-3" d="M447.83,533.37v71.42H433.3V533.37H403.16V520.06H478v13.31Z"/><path class="cls-4" d="M478.33,576.71c.37,9.32,7,16.1,17.68,16.1,8.11,0,13.55-4.12,15.37-10.17h14.89c-2.67,15-13.92,23.36-30.63,23.36-19.12,0-31.83-12.59-31.83-31.47s12.71-31.48,31.83-31.48c17.68,0,30.63,11,30.63,30v3.64ZM511,566.9c-1.21-7.26-6.78-12-15.26-12a17.19,17.19,0,0,0-16.7,12Z"/><path class="cls-5" d="M566.7,592.32c8.35,0,13.43-4.36,15.49-11.13h15.13C594.66,596.32,583.4,606,566.7,606c-19.13,0-31.84-12.59-31.84-31.47s12.71-31.48,31.84-31.48c16.7,0,28,9.69,30.62,24.82H582.19c-2.06-6.78-7.14-11.14-15.49-11.14-10.41,0-17.43,7.14-17.43,17.8S556.29,592.32,566.7,592.32Z"/><path class="cls-6" d="M620.8,604.79H606.28V514H620.8v43.1H622c0-5.94,6.06-14.05,19.61-14.05,17,0,26.27,11.26,26.27,28.45v33.29H653.25V571.86c0-9.56-5.57-15.13-15.38-15.13-11.13,0-17.07,7-17.07,16.59Z"/><path class="cls-7" d="M676.85,520.06h14.52v61.73l39.1-61.73h16.34L720.3,560.49l34,44.3h-17l-24.93-32.2-21.07,32.2H676.85Z"/><path class="cls-8" d="M767.39,576.71c.36,9.32,7,16.1,17.67,16.1,8.11,0,13.56-4.12,15.38-10.17h14.88c-2.66,15-13.92,23.36-30.62,23.36-19.13,0-31.84-12.59-31.84-31.47s12.71-31.48,31.84-31.48c17.67,0,30.62,11,30.62,30v3.64Zm32.68-9.81c-1.21-7.26-6.78-12-15.25-12a17.18,17.18,0,0,0-16.7,12Z"/><path class="cls-9" d="M871.25,592.2h-1.09v1.09c0,7.87-8.84,12.71-19.37,12.71-19,0-26.51-10.17-26.51-29.29V544.27h14.53v33.4c0,10.05,5,14.65,15.49,14.65,10.77,0,17-7,17-17.07v-31h14.64v63.55c0,18.15-11.5,28.44-31.59,28.44-18.28,0-29.29-8-29.29-24.81h14.52c0,8.59,5.21,12.46,15.25,12.46,11,0,16.47-5,16.47-14.88Z"/><path class="cls-10" d="M433.88,619.76h6.85L446,643.13l6.54-23.37h5.8L465,643.13l5.24-23.37h6.85l-8.24,36.61h-6.69l-6.74-23.67-6.62,23.67h-6.62Z"/><path class="cls-11" d="M501.85,618.83a18.19,18.19,0,0,1,13.36,5.63,18.7,18.7,0,0,1,5.59,13.71,18.5,18.5,0,0,1-5.52,13.57,19.11,19.11,0,0,1-27.08-.15,19.24,19.24,0,0,1,13.65-32.76Zm-.08,6.82a11.45,11.45,0,0,0-8.54,3.54,12.29,12.29,0,0,0-3.47,9,11.74,11.74,0,0,0,4.36,9.61,12,12,0,0,0,7.78,2.76,11.33,11.33,0,0,0,8.44-3.58,12.93,12.93,0,0,0,0-17.69A11.47,11.47,0,0,0,501.77,625.65Z"/><path class="cls-12" d="M529.88,619.76h7.38q6.07,0,8.64,1.08a8.82,8.82,0,0,1,4.14,3.59,11,11,0,0,1,1.57,6,10.17,10.17,0,0,1-1.73,6,10.47,10.47,0,0,1-5.21,3.67l8.67,16.28h-7.62l-8.23-15.51h-.64v15.51h-7Zm7,14.31H539c2.22,0,3.75-.3,4.58-.88a3.26,3.26,0,0,0,1.25-2.89,3.51,3.51,0,0,0-.62-2.09,3.4,3.4,0,0,0-1.66-1.27,12.5,12.5,0,0,0-3.82-.39h-1.91Z"/><path class="cls-13" d="M561,619.76h7v30h10.16v6.65H561Z"/><path class="cls-14" d="M585.5,619.76h8.26q8,0,11.86,2a15.43,15.43,0,0,1,6.39,6.44,20.77,20.77,0,0,1,2.51,10.4,21.11,21.11,0,0,1-1.4,7.78,16.19,16.19,0,0,1-3.88,5.88,13.77,13.77,0,0,1-5.36,3.24c-1.92.6-5.26.9-10,.9H585.5Zm6.92,6.71v23.1h3.24c3.18,0,5.49-.36,6.93-1.1a8.28,8.28,0,0,0,3.52-3.68,13.59,13.59,0,0,0,1.37-6.38q0-5.83-3.26-9-2.94-2.89-9.43-2.9Z"/></svg>